ply
format ascii 1.0
comment VCGLIB generated
element vertex 25
property float x
property float y
property float z
property float nx
property float ny
property float nz
property float texture_u
property float texture_v
element face 32
property list uchar int vertex_indices
property list uchar float texcoord
end_header
0 0 0 0 0 1 0.000000 0.000000
1 0 0 0 0 1 1.000000 0.000000
2 0 0 0 0 1 2.000000 0.000000
3 0 0 0 0 1 3.000000 0.000000
4 0 0 0 0 1 4.000000 0.000000
0 1 0 0 0 1 0.000000 1.000000
1 1 0 0 0 1 1.000000 1.000000
2 1 0 0 0 1 2.000000 1.000000
3 1 0 0 0 1 3.000000 1.000000
4 1 0 0 0 1 4.000000 1.000000
0 2 0 0 0 1 0.000000 2.000000
1 2 0 0 0 1 1.000000 2.000000
2 2 0 0 0 1 2.000000 2.000000
3 2 0 0 0 1 3.000000 2.000000
4 2 0 0 0 1 4.000000 2.000000
0 3 0 0 0 1 0.000000 3.000000
1 3 0 0 0 1 1.000000 3.000000
2 3 0 0 0 1 2.000000 3.000000
3 3 0 0 0 1 3.000000 3.000000
4 3 0 0 0 1 4.000000 3.000000
0 4 0 0 0 1 0.000000 4.000000
1 4 0 0 0 1 1.000000 4.000000
2 4 0 0 0 1 2.000000 4.000000
3 4 0 0 0 1 3.000000 4.000000
4 4 0 0 0 1 4.000000 4.000000
3 0 1 5 6 0.000000 0.000000 1.000000 0.000000 0.000000 1.000000 
3 1 6 5 6 1.000000 0.000000 1.000000 1.000000 0.000000 1.000000 
3 1 2 6 6 1.000000 0.000000 2.000000 0.000000 1.000000 1.000000 
3 2 7 6 6 2.000000 0.000000 2.000000 1.000000 1.000000 1.000000 
3 2 3 7 6 2.000000 0.000000 3.000000 0.000000 2.000000 1.000000 
3 3 8 7 6 3.000000 0.000000 3.000000 1.000000 2.000000 1.000000 
3 3 4 8 6 3.000000 0.000000 4.000000 0.000000 3.000000 1.000000 
3 4 9 8 6 4.000000 0.000000 4.000000 1.000000 3.000000 1.000000 
3 5 6 10 6 0.000000 1.000000 1.000000 1.000000 0.000000 2.000000 
3 6 11 10 6 1.000000 1.000000 1.000000 2.000000 0.000000 2.000000 
3 6 7 11 6 1.000000 1.000000 2.000000 1.000000 1.000000 2.000000 
3 7 12 11 6 2.000000 1.000000 2.000000 2.000000 1.000000 2.000000 
3 7 8 12 6 2.000000 1.000000 3.000000 1.000000 2.000000 2.000000 
3 8 13 12 6 3.000000 1.000000 3.000000 2.000000 2.000000 2.000000 
3 8 9 13 6 3.000000 1.000000 4.000000 1.000000 3.000000 2.000000 
3 9 14 13 6 4.000000 1.000000 4.000000 2.000000 3.000000 2.000000 
3 10 11 15 6 0.000000 2.000000 1.000000 2.000000 0.000000 3.000000 
3 11 16 15 6 1.000000 2.000000 1.000000 3.000000 0.000000 3.000000 
3 11 12 16 6 1.000000 2.000000 2.000000 2.000000 1.000000 3.000000 
3 12 17 16 6 2.000000 2.000000 2.000000 3.000000 1.000000 3.000000 
3 12 13 17 6 2.000000 2.000000 3.000000 2.000000 2.000000 3.000000 
3 13 18 17 6 3.000000 2.000000 3.000000 3.000000 2.000000 3.000000 
3 13 14 18 6 3.000000 2.000000 4.000000 2.000000 3.000000 3.000000 
3 14 19 18 6 4.000000 2.000000 4.000000 3.000000 3.000000 3.000000 
3 15 16 20 6 0.000000 3.000000 1.000000 3.000000 0.000000 4.000000 
3 16 21 20 6 1.000000 3.000000 1.000000 4.000000 0.000000 4.000000 
3 16 17 21 6 1.000000 3.000000 2.000000 3.000000 1.000000 4.000000 
3 17 22 21 6 2.000000 3.000000 2.000000 4.000000 1.000000 4.000000 
3 17 18 22 6 2.000000 3.000000 3.000000 3.000000 2.000000 4.000000 
3 18 23 22 6 3.000000 3.000000 3.000000 4.000000 2.000000 4.000000 
3 18 19 23 6 3.000000 3.000000 4.000000 3.000000 3.000000 4.000000 
3 19 24 23 6 4.000000 3.000000 4.000000 4.000000 3.000000 4.000000 
